<svg xmlns="http://www.w3.org/2000/svg" width="254" height="85"><path d="M0 35.844l18.957-.04v.952c0 1.97.577 3.306 1.73 4.002 1.153.685 3.575 1.033 7.266 1.033h24.118c2.38 0 4.065-.337 5.075-1.011 1.023-.662 1.528-1.766 1.528-3.315 0-1.574-.592-2.703-1.76-3.39-1.167-.672-3.676-1.13-7.539-1.368l-30.159-.566c-7.554-.18-12.657-1.381-15.31-3.591-2.667-2.198-3.994-6.212-3.994-12.04 0-3.003.347-5.478 1.053-7.424.707-1.947 1.831-3.57 3.388-4.854 1.831-1.454 4.225-2.487 7.18-3.101C14.488.52 19.304.218 25.964.218h29.322c7.266 0 12.5 1.107 15.685 3.305 3.201 2.21 4.801 5.79 4.801 10.742 0 .324-.014.67-.028 1.056-.015.372-.058.986-.145 1.826H57.103v-.216c0-1.73-.533-3.028-1.585-3.903-1.053-.866-2.639-1.298-4.758-1.298H28.631c-3.69 0-6.127.299-7.309.913-1.183.61-1.773 1.683-1.773 3.207 0 1.504.533 2.583 1.6 3.257 1.081.674 3.042 1.094 5.926 1.285l31.601.42c7.208.168 12.281 1.514 15.224 4.049 2.94 2.535 4.411 6.86 4.411 12.987 0 3.642-.548 6.453-1.63 8.448-1.081 1.994-2.912 3.699-5.464 5.105-1.687.89-3.992 1.526-6.89 1.924-2.898.385-7.094.576-12.586.576H26.137c-10.495 0-17.516-.985-21.076-2.942C1.514 48.999-.259 45.348-.259 40c0-.313.029-.818.072-1.54.043-.71.1-1.584.187-2.617zm228.327 5.525c1.684 0 2.996-.421 3.904-1.251.908-.826 1.371-2.017 1.371-3.565 0-1.406-.477-2.535-1.428-3.365-.967-.83-2.25-1.25-3.848-1.25h-35.48v9.432h35.481zm-1.731-20.1c1.613 0 2.824-.372 3.676-1.106.85-.745 1.268-1.813 1.268-3.22 0-1.285-.459-2.331-1.371-3.123-.92-.805-2.104-1.202-3.572-1.202h-33.75v8.65zm6.674 31.997h-59.596V.855h56.641c7.035 0 12.283 1.214 15.756 3.629 3.461 2.415 5.189 6.09 5.189 11.019 0 2.786-.75 5.083-2.264 6.87-1.5 1.805-3.848 3.21-7.035 4.219 3.979.528 6.877 1.804 8.707 3.81 1.83 2.005 2.742 4.902 2.742 8.675 0 4.962-1.588 8.554-4.773 10.812-3.187 2.247-8.302 3.377-15.367 3.377z" clip-rule="evenodd" fill="#165898" fill-rule="evenodd"/><path d="M140.946.809l34.678 52.502H71.337L93.818 21h27.639l-11.865 19.693h28.496L108.04.809z" clip-rule="evenodd" fill="#165898" fill-rule="evenodd"/><path d="M76.333 66.338h1.764v5.018h.042c.399-.965 1.47-1.574 2.604-1.574 3.044 0 3.422 3.569 3.422 5.92 0 3.172-1.071 5.922-3.674 5.922-1.218 0-2.205-.84-2.436-1.68h-.042v1.386h-1.68zm3.926 13.774c1.638 0 2.058-1.848 2.058-4.41 0-2.687-.42-4.408-2.058-4.408-1.89 0-2.268 2.226-2.268 4.409.001 2.309.379 4.409 2.268 4.409zm8.569-10.037h1.932l2.226 9.028h.042l1.974-9.028h1.932l-3.254 12.01c-.42 1.554-.882 2.939-3.002 2.939-.693 0-.987-.042-1.281-.063v-1.385c.252.04.588.063 1.029.063.819 0 1.176-.482 1.386-1.092l.336-.986zm22.05-3.737h3.107l3.002 11.884h.042l3.002-11.884h3.107v14.99h-1.848v-13.1h-.042l-3.317 13.102h-1.848l-3.317-13.102h-.042V81.33h-1.848V66.338zm27.634 9.848c-.168 2.834-1.281 5.438-4.557 5.438-4.262 0-4.829-4.01-4.829-7.79 0-3.778.693-7.79 4.829-7.79 3.065 0 4.346 1.723 4.43 4.662h-1.932c-.041-1.701-.588-3.15-2.498-3.15-2.562 0-2.897 2.814-2.897 6.279 0 3.464.336 6.277 2.897 6.277 2.246 0 2.562-2.1 2.625-3.926zm13.418 5.143h-8.314c0-2.771 1.555-4.661 3.213-6.09l1.218-1.028c1.196-1.028 1.974-1.932 1.974-3.568 0-1.281-.566-2.667-2.162-2.667-2.289 0-2.352 2.372-2.352 3.212h-1.848c0-2.813 1.176-4.724 4.22-4.724 3.443 0 3.989 2.667 3.989 3.968 0 2.268-.945 3.465-2.604 4.893l-2.1 1.826c-.818.693-1.406 1.555-1.617 2.54h6.383zm5.82-14.991h1.848v14.99h-1.848zm12.556 14.99h-1.848V67.977h-3.759v-1.638h9.386v1.638h-3.779z" fill="#6d6e70"/></svg>